<?xml version="1.0" encoding="UTF-8"?>
<!DOCTYPE svg PUBLIC "-//W3C//DTD SVG 1.1//EN" "http://www.w3.org/Graphics/SVG/1.1/DTD/svg11.dtd">
<!-- Creator: CorelDRAW -->
<svg xmlns="http://www.w3.org/2000/svg" xml:space="preserve" width="1.70666in" height="1.70666in" version="1.1" style="shape-rendering:geometricPrecision; text-rendering:geometricPrecision; image-rendering:optimizeQuality; fill-rule:evenodd; clip-rule:evenodd"
viewBox="0 0 1707 1707"
 xmlns:xlink="http://www.w3.org/1999/xlink">
 <defs>
  <style type="text/css">
   <![CDATA[
    .fil0 {fill:#FFFF}
   ]]>
  </style>
 </defs>
 <g id="Layer_x0020_1">
  <metadata id="CorelCorpID_0Corel-Layer"/>
  <path class="fil0" d="M1297 1707l-887 0c-140,0 -253,-117 -253,-257l0 -1113c0,-140 113,-257 253,-257l177 0 0 -30c0,-28 22,-50 50,-50l446 0c28,0 50,22 50,50l0 30 164 0c140,0 253,117 253,257l0 1113c0,140 -114,257 -253,257zm-54 -1274l-780 0c-35,0 -35,-53 0,-53l780 0c35,0 35,53 0,53zm0 190l-303 0c-35,0 -35,-53 0,-53l303 0c35,0 35,53 0,53zm0 187l-393 0c-35,0 -35,-53 0,-53l393 0c35,0 35,53 0,53zm0 187l-393 0c-35,0 -35,-54 0,-54l393 0c35,0 35,54 0,54zm0 186l-393 0c-35,0 -35,-53 0,-53l393 0c35,0 35,53 0,53zm0 190l-780 0c-35,0 -35,-53 0,-53l780 0c35,0 35,53 0,53zm-433 -700l-43 0 0 417c0,68 -56,123 -124,123 -68,0 -123,-55 -123,-123l0 -417c-83,0 -73,7 -73,-96 0,-40 33,-74 73,-74l247 0c38,0 70,33 70,74l0 70c0,14 -12,26 -27,26zm-310 -53c94,0 189,0 283,0 0,-25 6,-63 -16,-63l-247 0c-26,0 -20,37 -20,63zm73 53l0 417c0,92 140,92 140,0l0 -417 -140 0zm67 -566l0 56 440 0 0 -110 -440 0 0 54zm443 -54l0 0zm214 1480l-887 0c-46,0 -80,-35 -80,-83l0 -1113c0,-46 36,-84 80,-84l887 0c44,0 80,38 80,84l0 1113c0,48 -35,83 -80,83zm-887 -1226c-14,0 -27,13 -27,30l0 1113c0,18 11,30 27,30l887 0c16,0 26,-12 26,-30l0 -1113c0,-17 -12,-30 -26,-30l-887 0zm0 -174c-110,0 -200,92 -200,204l0 1113c0,112 90,203 200,203l887 0c110,0 200,-91 200,-203l0 -1113c0,-112 -90,-204 -200,-204l-164 0 0 34c0,28 -22,50 -50,50l-446 0c-28,0 -50,-22 -50,-50l0 -34 -177 0z"/>
 </g>
</svg>
